<svg xmlns="http://www.w3.org/2000/svg" version="1.1" xmlns:xlink="http://www.w3.org/1999/xlink" xmlns:svgjs="http://svgjs.dev/svgjs" width="100%" height="100%" viewBox="0 0 1000 600"><rect width="1000" height="600" x="0" y="0" fill="#0000"/><g><rect width="333.3333333333333" height="333.3333333333333" rx="13.333333333333334" ry="13.333333333333334" y="349.61645076581686" fill="#44aaaa" transform="matrix(0.38180270074421635,0,0,0.38180270074421635,0,102.88170212109422)" x="327.3940734863281"/><path d="M491.9317361202952 523.9367494374635L491.9317361202952 523.9367494374635Q482.2299754037956 537.3305690932978 465.92562753301144 537.3305690932978L465.92562753301144 537.3305690932978Q452.72045322444245 537.3305690932978 444.8781966452719 531.8059553519577Q437.0089907307777 526.2813416106176 437.0089907307777 514.2349887209639L437.0089907307777 514.2349887209639Q437.0089907307777 509.1954630154487 438.46425483825266 504.93746803431833Q439.91951894572765 500.6525237178643 443.2342871905317 494.45417659343394L443.2342871905317 494.45417659343394L448.8397489378426 448.478610531355Q454.87640005033126 443.8163755203704 465.1440968086267 443.8163755203704L465.1440968086267 443.8163755203704Q473.87568145347643 443.8163755203704 475.03450287239167 455.45848838017L475.03450287239167 455.45848838017Q475.43874290224585 458.93495263691574 475.43874290224585 463.70498498919477Q475.43874290224585 468.4480680061501 473.87568145347643 473.70318839425414L473.87568145347643 473.70318839425414Q466.1142728802767 500.46387837059905 466.30291822754197 509.5997030453029L466.30291822754197 509.5997030453029Q466.30291822754197 516.579580894118 474.4685668305959 516.579580894118Q482.60726609832614 516.579580894118 486.487970384926 511.3244605060139Q490.36867467152587 506.0962894532335 493.09055753921047 498.33488088003384L493.09055753921047 498.33488088003384Q498.1300832447256 476.80236195646927 502.49587556715045 462.81565692351563Q506.8616678895753 448.85590122588553 508.02048930849054 446.1340183582009L508.02048930849054 446.1340183582009Q509.96084145179043 441.47178334721633 515.4046071871596 441.28313799995107L515.4046071871596 441.28313799995107Q520.8483729225289 441.47178334721633 525.6992532807787 448.96369856717996Q530.5501336390287 456.42866445182 530.5501336390287 460.49801408568516L530.5501336390287 460.49801408568516Q530.1458936091744 474.08047908878467 513.6529003911251 529.0032244783022L513.6529003911251 529.0032244783022Q526.2651893225745 519.0858690792136 538.688832906759 504.748822687053L538.688832906759 504.748822687053Q542.9468278878893 499.68234764621434 545.8573561028393 496.28673139543946Q548.7678843177891 492.8911151446646 550.5195911138237 492.8911151446646L550.5195911138237 492.8911151446646Q553.2414739815084 492.8911151446646 553.2414739815084 499.1164116044185L553.2414739815084 499.1164116044185Q553.2414739815084 511.3244605060139 539.5512116371144 527.6288083767981Q525.887898628044 543.9331562475822 506.0801371651906 553.0420315869625L506.0801371651906 553.0420315869625Q503.7624943273601 560.8034401601622 501.0406114596755 567.8102673443009Q498.31872859199086 574.7901451931159 494.06073361086044 580.0183162458961L494.06073361086044 580.0183162458961Q484.73626358889135 591.2831384111653 465.7369821857462 591.2831384111653L465.7369821857462 591.2831384111653Q452.9360479070313 591.2831384111653 443.9080205736219 583.899020532496Q434.8799932402125 576.5418519891505 434.8799932402125 565.4656751711468L434.8799932402125 565.4656751711468Q434.8799932402125 559.2673280467163 439.0571402153721 555.5752691073819Q443.2342871905317 551.8832101680473 450.5106077279064 549.4577699889223Q457.7869282652812 547.0323298097974 467.48868898178085 545.1997750077919Q477.1904496982805 543.3402708704627 488.23967718096065 540.6453373381019L488.23967718096065 540.6453373381019Q490.9615600486453 529.0032244783022 491.9317361202952 523.9367494374635ZM465.5483368384809 576.3262573065617L465.5483368384809 576.3262573065617Q474.65721217786114 576.3262573065617 482.04133005653034 560.4261494656316L482.04133005653034 560.4261494656316Q475.03450287239167 561.7736162318122 469.617686472346 562.4742989502261Q464.17392073697675 563.1480323333162 460.2932164503769 563.713968375112L460.2932164503769 563.713968375112Q452.5318078771772 564.899739129351 452.72045322444245 567.8102673443009L452.72045322444245 567.8102673443009Q452.72045322444245 571.4753769483118 457.0862455468673 574.0086144687311Q461.45203786929216 576.5418519891505 465.5483368384809 576.3262573065617Z " fill="#ffffff" transform="matrix(0.38180270074421635,0,0,0.38180270074421635,0,102.88170212109422)"/><path d="M777.0441824080713 515.8491467756114L777.0441824080713 515.8491467756114Q777.0441824080713 524.5693731420442 784.7551233154261 524.5693731420442L784.7551233154261 524.5693731420442Q793.192749753317 524.5693731420442 799.7329195281416 514.3957757145394L799.7329195281416 514.3957757145394Q801.4688905177555 506.6848348071845 806.3336464305108 487.64971104897603Q811.198402343266 468.6145872907676 812.0865735472546 464.2544741075512L812.0865735472546 464.2544741075512Q813.9638445011394 455.6755477053894 816.3659438937448 450.588748991637Q818.7680432863501 445.50195027788453 822.4014709390303 445.50195027788453L822.4014709390303 445.50195027788453Q829.0829406781259 445.50195027788453 832.6356254940799 448.489435236755Q836.2084960192155 451.45673448644396 836.2084960192155 459.24841823052503Q836.2084960192155 467.01991626542457 830.9803973411922 476.74942809093517L830.9803973411922 476.74942809093517Q830.0922261372036 481.97752676895846 829.0829406781259 487.64971104897603Q828.0736552190479 493.3218953289936 826.4587984845234 502.4862072974206Q824.8641274591803 511.630333556666 820.504014275964 533.5721994370188L820.504014275964 533.5721994370188Q837.6618670802876 526.6081297693814 841.517337533965 522.1067166218942Q845.352622278461 517.5851177652254 847.532678870069 517.5851177652254Q849.7127354616773 517.5851177652254 849.7127354616773 522.1067166218942Q849.7127354616773 526.6081297693814 847.02803614053 529.9387717843383Q844.343336819383 533.2895995084768 838.6105954118209 537.5084127274224Q832.857668295077 541.7272259463678 817.5972721538197 548.2673957211923L817.5972721538197 548.2673957211923Q810.0478169199173 580.5241589933207 789.9832219934494 588.9617854312116L789.9832219934494 588.9617854312116Q784.4725233868844 591.2831419870909 778.3562535048725 591.2831419870909L778.3562535048725 591.2831419870909Q765.2759139552235 591.2831419870909 757.5851587570502 586.3376432376092L757.5851587570502 586.3376432376092Q748.703446717165 580.8067589218626 748.703446717165 569.9064759638215L748.703446717165 569.9064759638215Q748.703446717165 560.1769641383112 777.7708679386074 549.2766811802702L777.7708679386074 549.2766811802702Q792.3045785493285 543.907282537976 795.3728063449253 543.0191113339874L795.3728063449253 543.0191113339874Q795.3728063449253 539.5471693547597 796.0994918754614 534.0162850390129L796.0994918754614 534.0162850390129Q787.0764798713053 539.1030837527653 776.3982397142615 539.1030837527653Q765.7199995572178 539.1030837527653 760.3304152057419 532.6436568146671Q754.9610165634477 526.1640441673871 754.9610165634477 514.8398613165336L754.9610165634477 514.8398613165336Q754.9610165634477 509.4502769650578 756.7777303897878 503.35419279222754Q758.5944442161281 497.23792291021573 760.8552436444625 490.9197959363883Q763.0958573636153 484.6016689625609 764.9125711899554 478.5055847897306Q766.7292850162955 472.38931490771876 766.7292850162955 467.16121622969547L766.7292850162955 467.16121622969547Q766.7292850162955 457.43170440418487 760.7745008077362 457.43170440418487L760.7745008077362 457.43170440418487Q758.7357441803989 457.43170440418487 757.0603303183296 458.58228982753366Q755.405102165442 459.753060960064 753.7296883033728 461.06513205686514Q752.0542744413035 462.3570174444848 750.3183034516896 463.52778857701514Q748.562146752894 464.69855970954546 746.3215330337412 464.69855970954546Q744.0607336054068 464.69855970954546 744.0607336054068 460.7623464191418L744.0607336054068 460.7623464191418Q744.0607336054068 452.7688055832452 751.4688888750384 447.68200686949274L751.4688888750384 447.68200686949274Q758.5944442161281 442.45390819146945 768.485441715091 442.45390819146945Q778.3562535048725 442.45390819146945 783.301752254354 449.72076349683005L783.301752254354 449.72076349683005Q787.0764798713053 455.09016213912423 787.0764798713053 461.9331175516721Q787.0764798713053 468.7558872550385 785.4818088459622 475.0740142288659Q783.8871378206193 481.41232691187486 782.070423994279 488.0937966509703Q780.2537101679388 494.7752663900657 778.6590391425959 501.6787789301583Q777.0441824080713 508.5822914702509 777.0441824080713 515.8491467756114ZM782.2924667952761 578.2028024374417L782.2924667952761 578.2028024374417Q788.1059510395646 573.398603652231 792.1632785850577 557.855607582432L792.1632785850577 557.855607582432Q784.4725233868844 560.6210497403054 779.0829390354086 562.3570207299192Q773.7135403931144 564.0929917195332 770.221412704705 565.5463627806053Q766.7292850162955 566.9997338416774 765.1346139909526 568.3925477752048Q763.5399429656095 569.7651759995508 763.5399429656095 571.6626326626172L763.5399429656095 571.6626326626172Q763.5399429656095 575.2960603152974 767.9000561488259 577.6174168711766Q772.2601693320423 579.9387734270556 776.1761969132643 580.0195162637817Q780.112410203668 580.0800733913266 782.2924667952761 578.2028024374417ZM876.3175001629697 535.6109560643561L876.3175001629697 535.6109560643561Q887.6618687230048 535.6109560643561 898.2593660433224 526.6081297693814L898.2593660433224 526.6081297693814Q902.1955793337261 523.257302045243 904.658235853876 520.431302759825Q907.120892374026 517.5851177652254 908.4329634708272 517.5851177652254L908.4329634708272 517.5851177652254Q910.4717200981645 517.5851177652254 910.4717200981645 521.6626310198999Q910.4717200981645 525.7401442745745 908.2916635065562 530.7462001516008Q906.1116069149482 535.7522560286268 901.0248082011958 540.5564548138375L901.0248082011958 540.5564548138375Q888.5298542178118 552.3247232666854 866.7292883017301 552.3247232666854L866.7292883017301 552.3247232666854Q849.4301355331354 552.3247232666854 843.1725656868527 539.8297692833014L843.1725656868527 539.8297692833014Q840.9925090952445 535.4696561000851 840.9925090952445 527.3348152999175Q840.9925090952445 519.1999744997499 844.202036855112 510.399005296591Q847.3913789057981 501.5980360934321 852.7002204205478 495.21935199206Q858.0090619352973 488.82048218150635 864.9731316029345 485.24761165637074Q871.9573869797532 481.69492684041666 879.8701849789238 481.69492684041666Q887.8031686872757 481.69492684041666 892.0825390337659 485.6109544216388Q896.3820950894376 489.5471677120424 896.3820950894376 495.7845518491436Q896.3820950894376 502.0421216954263 893.2533101662962 506.03889211337463Q890.1245252431547 510.035662531323 885.1790264936733 512.7203618524701Q880.2335277441919 515.4050611736172 874.2181864080878 517.5245606376807Q868.182659362802 519.6238743925626 862.3691751185136 522.248016586165L862.3691751185136 522.248016586165L862.3691751185136 525.8814442388455Q862.5104750827845 531.1095429168687 866.7292883017301 533.2895995084768Q870.9481015206754 535.4696561000851 876.3175001629697 535.6109560643561ZM873.8548436428198 494.6339664257948L873.8548436428198 494.6339664257948Q866.2852026997357 494.6339664257948 863.3784605775916 512.2157191229312L863.3784605775916 512.2157191229312Q866.4265026640066 510.1769624955939 869.1313876943352 508.5822914702509Q871.8160870154825 506.9876204449078 873.8548436428198 505.53424938383574L873.8548436428198 505.53424938383574Q878.2149568260361 502.3247216239681 878.356256790307 498.2673940784751L878.356256790307 498.2673940784751Q878.356256790307 494.6339664257948 873.8548436428198 494.6339664257948ZM909.6642917309023 543.543939772708Q908.0090635780145 539.6884693190304 907.2823780474785 534.5209277685519Q906.5556925169424 529.3735719272547 906.5556925169424 520.067959994557Q906.5556925169424 510.7623480618591 910.0276344961703 494.9165663543366L910.0276344961703 494.9165663543366L903.4874647213458 494.9165663543366Q901.7514937317317 494.9165663543366 901.7514937317317 493.4631952932645L901.7514937317317 493.4631952932645Q901.7514937317317 489.97106760485514 902.3974364255416 487.7304538857023Q903.0635648285329 485.4696544573679 905.5262213486831 482.5629123352236L905.5262213486831 482.5629123352236L909.0183490370923 482.5629123352236Q911.0571056644296 482.5629123352236 913.3784622203086 482.4216123709527L913.3784622203086 482.4216123709527Q920.3627175971276 460.0356608886058 927.629572902488 460.0356608886058L927.629572902488 460.0356608886058Q933.4430571467765 460.1769608528767 935.7644137026557 467.44381615823727L935.7644137026557 467.44381615823727Q936.3497992689208 469.4825727855745 937.0764847994569 471.8039293414536L937.0764847994569 471.8039293414536L931.101514881716 482.2803124066818Q941.2751123092207 482.5629123352236 943.9799973395495 482.5629123352236Q946.6646966606966 482.5629123352236 946.8867394616937 483.06755506476253Q947.0885965535092 483.59238350348306 947.0885965535092 484.6016689625609L947.0885965535092 484.6016689625609Q947.0885965535092 487.22581115616333 945.8572682934343 491.1418387373854Q944.6259400333593 495.0578663186075 943.0312690080164 494.9165663543366L943.0312690080164 494.9165663543366L928.497558397295 494.1898808238006Q925.44951631088 511.93311919438935 925.44951631088 523.5600876829662Q925.44951631088 535.1870561715432 928.780158325837 535.1870561715432L928.780158325837 535.1870561715432Q931.5456004837101 535.1870561715432 938.8124557890708 530.6049001873298Q946.0793110944314 526.0227442031163 949.2686531451175 521.8039309841708Q952.478180904985 517.5851177652254 954.5169375323223 517.5851177652254L954.5169375323223 517.5851177652254Q956.5355084504781 517.5851177652254 956.5355084504781 522.5306165147069Q956.5355084504781 527.4761152641884 953.0635664712502 532.6436568146671Q949.5714387828409 537.7910126559641 944.2625972680912 542.0905687116358Q938.9537557533417 546.369939058126 932.4943288152433 549.1353812159994Q926.0147161679636 551.9008233738726 921.2307030919344 551.9008233738726Q916.4265043067239 551.9008233738726 913.8831049498476 549.6400239455382Q911.3397055929715 547.3792245172037 909.6642917309023 543.543939772708ZM1113.2169831177252 517.1612178724126L1113.2169831177252 517.1612178724126Q1115.6796396378752 517.1612178724126 1115.6796396378752 523.8426876115082L1115.6796396378752 523.8426876115082Q1115.6796396378752 527.4761152641884 1112.63159755146 532.6436568146671Q1109.5835554650448 537.7910126559641 1104.7187995522895 542.0905687116358Q1099.8540436395342 546.369939058126 1093.8790737217932 549.1353812159994Q1087.924289513234 551.9008233738726 1082.2521052332163 551.9008233738726L1082.2521052332163 551.9008233738726Q1073.6933645402362 551.9008233738726 1070.4232796528238 547.601267318201Q1067.1531947654116 543.3218969717109 1067.1531947654116 534.9650133705461Q1067.1531947654116 526.6081297693814 1073.6933645402362 506.2609349143718L1073.6933645402362 506.2609349143718Q1053.6287696137683 505.3929494195648 1044.4644576453413 505.3929494195648L1044.4644576453413 505.3929494195648L1042.4458867271856 505.3929494195648Q1039.8217445335831 521.521331055629 1039.8217445335831 539.2443837170363L1039.8217445335831 539.2443837170363Q1039.8217445335831 547.096624588662 1033.8669603250237 550.0033667108062L1033.8669603250237 550.0033667108062Q1031.1015181671503 551.3154378076074 1028.5581188102742 552.4660232309562Q1026.014719453398 553.6367943634866 1023.1079773312538 553.6367943634866L1023.1079773312538 553.6367943634866Q1015.8411220258931 553.6367943634866 1015.8411220258931 540.5564548138375Q1015.8411220258931 527.4761152641884 1021.7959062344526 506.9876204449078L1021.7959062344526 506.9876204449078Q1015.397036423899 507.7143059754439 1010.5322805111437 508.44099150598Q1005.6675245983884 509.167677036516 1002.902082440515 509.167677036516Q1000.1366402826416 509.167677036516 1000.1366402826416 507.7143059754439L1000.1366402826416 507.7143059754439Q1000.1366402826416 503.35419279222754 1007.2621956237313 498.8527796447403L1007.2621956237313 498.8527796447403Q1014.5290509290919 494.33118078807144 1026.882704948205 492.0098242321924L1026.882704948205 492.0098242321924Q1040.5484300641192 457.27021873073244 1060.3102393528636 445.6432502421555L1060.3102393528636 445.6432502421555Q1067.5770946582243 441.2831370589391 1075.7119354583917 441.2831370589391L1075.7119354583917 441.2831370589391Q1090.245646069113 441.44462273239157 1096.725258716393 449.13537793056486Q1103.1846856544912 456.84631883791974 1103.2654284912173 469.56331562230076Q1103.3259856187622 482.2803124066818 1095.493930456318 502.6275072616915L1095.493930456318 502.6275072616915Q1092.5871883341736 510.47974813331723 1090.104346104842 516.8584322346893Q1087.6416895846921 523.257302045243 1087.6416895846921 527.1935153356467Q1087.6416895846921 531.1095429168687 1088.2270751509573 533.148299544206Q1088.7922750080409 535.1870561715432 1090.9723315996491 535.1870561715432L1090.9723315996491 535.1870561715432Q1094.9085448900528 535.1870561715432 1109.4422555007739 520.067959994557L1109.4422555007739 520.067959994557Q1112.0462119851948 517.1612178724126 1113.2169831177252 517.1612178724126ZM1082.2521052332163 473.8426859687909L1082.2521052332163 473.8426859687909Q1082.2521052332163 461.2064320211361 1072.8051933362476 461.2064320211361L1072.8051933362476 461.2064320211361Q1063.216981475008 461.2064320211361 1056.3134689349154 469.26052998457743Q1049.4099563948228 477.3348136572003 1045.6352287778716 490.8592388088436L1045.6352287778716 490.8592388088436L1078.618677580536 491.28313870165636Q1082.2521052332163 479.65617021307935 1082.2521052332163 473.8426859687909ZM1127.7506937284463 478.9294846825433L1127.7506937284463 478.9294846825433Q1132.9787924064697 478.9294846825433 1137.6416912274094 488.96178214577725L1137.6416912274094 488.96178214577725Q1144.4644609307757 481.83622680468756 1154.5573155215543 481.83622680468756Q1164.6703558215145 481.83622680468756 1169.7571545352669 486.27708282463016Q1174.8439532490193 490.69775313539117 1174.8439532490193 498.77203680801404Q1174.8439532490193 506.84632048063696 1172.7244537849558 515.1224612450753Q1170.625140030074 523.3986020095139 1169.6764116985407 526.9714725346495Q1168.7276833670073 530.5241573506036 1168.7276833670073 532.8455139064827Q1168.7276833670073 535.1870561715432 1170.342540101532 535.1870561715432L1170.342540101532 535.1870561715432Q1172.5225966931403 535.1870561715432 1175.7119387438263 532.4216140136699Q1178.9012807945123 529.6561718557966 1182.11080855438 526.3860869683842Q1185.300150605066 523.1160020809721 1187.984849926213 520.3505599230987Q1190.6897349565418 517.5851177652254 1191.6990204156195 517.5851177652254L1191.6990204156195 517.5851177652254Q1193.7377770429568 517.5851177652254 1193.7377770429568 522.5306165147069L1193.7377770429568 522.5306165147069Q1193.7377770429568 532.7042139422117 1183.7054795797228 542.1511258391805L1183.7054795797228 542.1511258391805Q1166.8504124131225 552.0421233381435 1162.187513592183 552.0421233381435L1162.187513592183 552.0421233381435Q1161.7636136993704 552.0421233381435 1161.6223137350994 551.9008233738726L1161.6223137350994 551.9008233738726Q1149.9953452465224 551.9008233738726 1149.9953452465224 533.2895995084768L1149.9953452465224 533.2895995084768Q1149.9953452465224 525.2960586725802 1151.5092734351392 518.6145889334848Q1153.0433873329375 511.93311919438935 1153.7700728634736 508.8648913987927Q1154.4967583940097 505.81684931237754 1154.4967583940097 502.6275072616915L1154.4967583940097 502.6275072616915Q1154.4967583940097 497.39940858366816 1148.4612313487241 497.39940858366816Q1142.4257043034384 497.39940858366816 1136.975562824418 506.32149204191643Q1131.5254213453975 515.2637612093463 1129.6481503915127 524.8519730705859L1129.6481503915127 524.8519730705859L1129.6481503915127 525.8814442388455Q1129.6481503915127 530.8269429883269 1131.1620785801294 536.0550416663502Q1132.6961924779278 541.2831403443736 1132.6961924779278 543.3218969717109L1132.6961924779278 543.3218969717109Q1132.6961924779278 548.2673957211923 1120.342538458815 553.0514087972215L1120.342538458815 553.0514087972215Q1118.4450817957486 553.7780943277575 1116.9917107346764 553.7780943277575L1116.9917107346764 553.7780943277575Q1113.358283081996 553.7780943277575 1111.9856548576502 550.0033667108062Q1110.5928409241226 546.228639093855 1110.5928409241226 538.2350982579585L1110.5928409241226 538.2350982579585Q1110.5928409241226 517.5851177652254 1112.2076976586472 508.44099150598L1112.2076976586472 508.44099150598Q1114.3877542502555 494.7752663900657 1122.0785094484288 483.0069979372179L1122.0785094484288 483.0069979372179Q1124.7026516420312 478.9294846825433 1127.7506937284463 478.9294846825433ZM1245.191149746746 539.1030837527653L1245.191149746746 539.1030837527653Q1233.70548122244 552.6275089044086 1217.6376567139207 552.6275089044086Q1201.5900179145826 552.6275089044086 1193.596477078686 544.4119252675149Q1185.6029362427894 536.1963416306212 1185.74423620706 523.983987575779L1185.74423620706 523.983987575779Q1185.6029362427894 506.6848348071845 1196.6445191651012 494.1898808238006Q1207.6861020874128 481.69492684041666 1225.5706404222726 481.69492684041666L1225.5706404222726 481.69492684041666Q1233.70548122244 481.69492684041666 1238.6509799719217 483.7336834677539L1238.6509799719217 483.7336834677539Q1247.2097206649019 487.22581115616333 1247.2097206649019 490.27385324257847L1247.2097206649019 490.27385324257847Q1247.2097206649019 492.5952097984576 1235.2194094110569 492.67595263518376Q1223.2290981572119 492.7365097627284 1215.1750001937705 500.95209339962224Q1207.1007165211477 509.167677036516 1207.1007165211477 521.6626310198999L1207.1007165211477 521.6626310198999Q1207.1007165211477 528.2028007947245 1210.9561869748252 532.6436568146671Q1214.8116574285025 537.064327125428 1221.856469932866 537.064327125428Q1228.9012824372296 537.064327125428 1233.5641812581694 534.1575850032839L1233.5641812581694 534.1575850032839Q1223.2290981572119 527.1935153356467 1223.2290981572119 513.9516901125451L1223.2290981572119 513.9516901125451Q1223.0877981929411 506.9876204449078 1228.2553397434197 501.23469332816404Q1233.4026955847166 495.5019519206018 1241.4769792573397 495.42120908387557Q1249.5512629299624 495.36065195633086 1253.0232049091903 499.86206510381817Q1256.5153325975998 504.3634782513054 1256.5153325975998 511.4082907556689Q1256.5153325975998 518.4732889692139 1253.1846905826428 526.3053441316581L1253.1846905826428 526.3053441316581L1254.0526760774499 526.3053441316581Q1260.4515458880035 526.1640441673871 1265.0942589997615 521.8039309841708L1265.0942589997615 521.8039309841708Q1266.8302299893755 520.067959994557 1268.0817439586322 518.7558888977558Q1269.313072218707 517.4438178009545 1270.6251433155082 517.4438178009545L1270.6251433155082 517.4438178009545Q1272.643714233664 517.4438178009545 1272.643714233664 522.248016586165L1272.643714233664 522.248016586165Q1272.643714233664 531.1095429168687 1267.4156155556407 535.5503989368112Q1262.1875168776173 539.9710692475724 1255.86938990379 539.9710692475724Q1249.5512629299624 539.9710692475724 1245.191149746746 539.1030837527653ZM1243.879078649945 522.248016586165L1243.879078649945 522.248016586165Q1246.341735170095 517.0199179081418 1246.341735170095 512.0744191586602Q1246.341735170095 507.12892040917876 1243.152393119409 507.12892040917876L1243.152393119409 507.12892040917876Q1241.8403220226076 507.12892040917876 1240.9723365278007 509.0263770722451Q1240.1043510329937 510.90364802612993 1240.1043510329937 512.6598047249254L1240.1043510329937 512.6598047249254Q1240.1043510329937 518.4732889692139 1243.879078649945 522.248016586165ZM1271.8564715755833 543.543939772708Q1270.181057713514 539.6884693190304 1269.454372182978 534.5209277685519Q1268.727686652442 529.3735719272547 1268.727686652442 520.067959994557Q1268.727686652442 510.7623480618591 1272.2198143408511 494.9165663543366L1272.2198143408511 494.9165663543366L1265.6796445660268 494.9165663543366Q1263.9234878672312 494.9165663543366 1263.9234878672312 493.4631952932645L1263.9234878672312 493.4631952932645Q1263.9234878672312 489.97106760485514 1264.5896162702227 487.7304538857023Q1265.2355589640324 485.4696544573679 1267.7184011933641 482.5629123352236L1267.7184011933641 482.5629123352236L1271.1903431725918 482.5629123352236Q1273.2290997999291 482.5629123352236 1275.5504563558081 482.4216123709527L1275.5504563558081 482.4216123709527Q1282.5347117326269 460.0356608886058 1289.8015670379875 460.0356608886058L1289.8015670379875 460.0356608886058Q1295.615051282276 460.1769608528767 1297.9364078381552 467.44381615823727L1297.9364078381552 467.44381615823727Q1298.5217934044204 469.4825727855745 1299.2484789349564 471.8039293414536L1299.2484789349564 471.8039293414536L1293.293694726397 482.2803124066818Q1303.4672921539018 482.5629123352236 1306.1519914750488 482.5629123352236Q1308.836690796196 482.5629123352236 1309.0587335971932 483.06755506476253Q1309.2807763981903 483.59238350348306 1309.2807763981903 484.6016689625609L1309.2807763981903 484.6016689625609Q1309.2807763981903 487.22581115616333 1308.0494481381152 491.1418387373854Q1306.7979341688588 495.0578663186075 1305.2032631435159 494.9165663543366L1305.2032631435159 494.9165663543366L1290.6695525327946 494.1898808238006Q1287.6215104463793 511.93311919438935 1287.6215104463793 523.5600876829662Q1287.6215104463793 535.1870561715432 1290.9723381705178 535.1870561715432L1290.9723381705178 535.1870561715432Q1293.7175946192096 535.1870561715432 1300.9844499245703 530.6049001873298Q1308.251305229931 526.0227442031163 1311.4608329897985 521.8039309841708Q1314.6501750404846 517.5851177652254 1316.6889316678219 517.5851177652254L1316.6889316678219 517.5851177652254Q1318.7276882951592 517.5851177652254 1318.7276882951592 522.5306165147069Q1318.7276882951592 527.4761152641884 1315.2355606067497 532.6436568146671Q1311.7434329183404 537.7910126559641 1306.4345914035907 542.0905687116358Q1301.1459355980228 546.369939058126 1294.6663229507428 549.1353812159994Q1288.2068960126446 551.9008233738726 1283.402697227434 551.9008233738726Q1278.618684151405 551.9008233738726 1276.0752847945287 549.6400239455382Q1273.5318854376526 547.3792245172037 1271.8564715755833 543.543939772708ZM1359.8459778979911 502.6275072616915L1359.8459778979911 502.6275072616915Q1359.8459778979911 497.39940858366816 1353.6691508884346 497.39940858366816Q1347.492323878878 497.39940858366816 1341.5375396703187 506.9068776081816Q1335.5827554617595 516.4345323418765 1334.1293844006873 526.3053441316581L1334.1293844006873 526.3053441316581Q1334.411984329229 529.6561718557966 1334.7147699669524 533.0069995799352Q1334.997369895494 536.337641594892 1334.997369895494 539.5471693547597L1334.997369895494 539.5471693547597Q1334.997369895494 547.2379245529329 1329.9105711817417 550.0033667108062L1329.9105711817417 550.0033667108062Q1327.5892146258627 551.3154378076074 1325.4899008709808 552.4660232309562Q1323.3704014069172 553.6367943634866 1320.604959249044 553.6367943634866Q1317.8597028003521 553.6367943634866 1315.7402033362887 549.92262387408Q1313.6408895814068 546.228639093855 1313.6408895814068 538.3763982222292L1313.6408895814068 538.3763982222292Q1313.6408895814068 516.4345323418765 1316.8302316320926 500.3061507058124L1316.8302316320926 500.3061507058124Q1321.7757303815742 475.296057029863 1336.4507409565663 446.81402137468575L1336.4507409565663 446.81402137468575Q1338.4894975839036 442.8979937934637 1342.4055251651257 442.95855092100834Q1346.3417384555294 443.0392937577346 1348.8043949756793 448.4086924000288Q1351.2872372050108 453.7982767515046 1351.2064943682847 457.43170440418487Q1351.1257515315585 461.06513205686514 1350.0357232357542 464.4765169085484Q1348.9456949399503 467.8879017602315 1347.2904667870625 471.1579866476438Q1345.6150529249933 474.42807153505606 1343.4955534609296 477.83945638673924Q1341.396239706048 481.2508412384224 1339.3574830787106 485.1870545288261L1339.3574830787106 485.1870545288261L1337.1774264871024 495.64325188487265Q1342.8496107671199 486.1963399879039 1352.4378226283598 483.0069979372179L1352.4378226283598 483.0069979372179Q1355.929950316769 481.83622680468756 1360.1487635357144 481.83622680468756L1360.1487635357144 481.83622680468756Q1370.0195753254961 481.83622680468756 1375.1063740392483 486.27708282463016Q1380.193172753001 490.69775313539117 1380.193172753001 498.77203680801404Q1380.193172753001 506.84632048063696 1378.0938589981188 515.1224612450753Q1375.994545243237 523.3986020095139 1375.0458169117037 526.9714725346495Q1374.0970885801705 530.5241573506036 1374.0970885801705 532.8455139064827Q1374.0970885801705 535.1870561715432 1375.6917596055137 535.1870561715432L1375.6917596055137 535.1870561715432Q1377.871816197122 535.1870561715432 1381.0813439569893 532.4216140136699Q1384.2706860076755 529.6561718557966 1387.4600280583613 526.3860869683842Q1390.6695558182291 523.1160020809721 1393.3542551393762 520.3505599230987Q1396.0389544605232 517.5851177652254 1397.0684256287827 517.5851177652254L1397.0684256287827 517.5851177652254Q1399.0869965469383 517.5851177652254 1399.0869965469383 522.5306165147069L1399.0869965469383 522.5306165147069Q1399.0869965469383 532.7042139422117 1389.0748847928862 542.1511258391805L1389.0748847928862 542.1511258391805Q1372.1996319171042 552.0421233381435 1367.556918805346 552.0421233381435L1367.556918805346 552.0421233381435Q1367.1128332033518 552.0421233381435 1366.9715332390808 551.9008233738726L1366.9715332390808 551.9008233738726Q1355.3445647505039 551.9008233738726 1355.3445647505039 533.2895995084768L1355.3445647505039 533.2895995084768Q1355.3445647505039 525.2960586725802 1356.8786786483022 518.6145889334848Q1358.392606836919 511.93311919438935 1359.119292367455 508.8648913987927Q1359.8459778979911 505.81684931237754 1359.8459778979911 502.6275072616915ZM1425.6917612482307 535.6109560643561L1425.6917612482307 535.6109560643561Q1437.036129808266 535.6109560643561 1447.6336271285836 526.6081297693814L1447.6336271285836 526.6081297693814Q1451.569840418987 523.257302045243 1454.0324969391372 520.431302759825Q1456.495153459287 517.5851177652254 1457.8072245560882 517.5851177652254L1457.8072245560882 517.5851177652254Q1459.8459811834257 517.5851177652254 1459.8459811834257 521.6626310198999Q1459.8459811834257 525.7401442745745 1457.6659245918172 530.7462001516008Q1455.4858680002092 535.7522560286268 1450.3990692864568 540.5564548138375L1450.3990692864568 540.5564548138375Q1437.904115303073 552.3247232666854 1416.1035493869913 552.3247232666854L1416.1035493869913 552.3247232666854Q1398.8043966183966 552.3247232666854 1392.546826772114 539.8297692833014L1392.546826772114 539.8297692833014Q1390.3667701805057 535.4696561000851 1390.3667701805057 527.3348152999175Q1390.3667701805057 519.1999744997499 1393.5762979403733 510.399005296591Q1396.7656399910593 501.5980360934321 1402.0744815058088 495.21935199206Q1407.3833230205582 488.82048218150635 1414.3473926881957 485.24761165637074Q1421.3316480650144 481.69492684041666 1429.2444460641848 481.69492684041666Q1437.177429772537 481.69492684041666 1441.456800119027 485.6109544216388Q1445.7563561746988 489.5471677120424 1445.7563561746988 495.7845518491436Q1445.7563561746988 502.0421216954263 1442.6275712515574 506.03889211337463Q1439.498786328416 510.035662531323 1434.5532875789345 512.7203618524701Q1429.607788829453 515.4050611736172 1423.5924474933488 517.5245606376807Q1417.5569204480632 519.6238743925626 1411.7434362037748 522.248016586165L1411.7434362037748 522.248016586165L1411.7434362037748 525.8814442388455Q1411.8847361680455 531.1095429168687 1416.1035493869913 533.2895995084768Q1420.3223626059366 535.4696561000851 1425.6917612482307 535.6109560643561ZM1423.2291047280808 494.6339664257948L1423.2291047280808 494.6339664257948Q1415.6594637849967 494.6339664257948 1412.7527216628528 512.2157191229312L1412.7527216628528 512.2157191229312Q1415.8007637492678 510.1769624955939 1418.5056487795964 508.5822914702509Q1421.1903481007434 506.9876204449078 1423.2291047280808 505.53424938383574L1423.2291047280808 505.53424938383574Q1427.589217911297 502.3247216239681 1427.730517875568 498.2673940784751L1427.730517875568 498.2673940784751Q1427.730517875568 494.6339664257948 1423.2291047280808 494.6339664257948ZM1473.7943062278816 527.0320296621942L1473.7943062278816 527.0320296621942L1474.6622917226887 544.775268032783Q1474.6622917226887 548.2673957211923 1471.0288640700082 551.0126521698842Q1467.3954364173278 553.7780943277575 1461.158052280227 553.7780943277575L1461.158052280227 553.7780943277575Q1457.5246246275465 553.7780943277575 1456.131810694019 550.0033667108062Q1454.7591824696733 546.228639093855 1454.7591824696733 538.9617837884945L1454.7591824696733 538.9617837884945Q1454.7591824696733 523.7013876472372 1456.2932963674716 515.0417184083492Q1457.8072245560882 506.4022348786427 1462.3086377035756 497.54070854793906L1462.3086377035756 497.54070854793906Q1455.6271679644801 491.1418387373854 1455.6271679644801 486.49912562562724L1455.6271679644801 486.49912562562724Q1455.6271679644801 476.74942809093517 1466.1035510297083 476.74942809093517L1466.1035510297083 476.74942809093517Q1471.4729496720026 476.74942809093517 1475.550462926677 482.4216123709527L1475.550462926677 482.4216123709527Q1478.4572050488214 486.3376399521748 1479.749090436441 491.5859243393797L1479.749090436441 491.5859243393797Q1481.7878470637784 492.3126098699158 1484.8358891501935 492.3126098699158L1484.8358891501935 492.3126098699158Q1489.0547023691388 492.3126098699158 1494.5855866848856 489.5471677120424L1494.5855866848856 489.5471677120424L1498.3603143018368 487.64971104897603Q1500.0962852914506 486.7817255541691 1501.4083563882518 486.7817255541691L1501.4083563882518 486.7817255541691Q1505.6271696071972 486.7817255541691 1509.845982826143 499.1353795732821L1509.845982826143 499.1353795732821Q1508.5339117293415 504.80756385329965 1506.9997978315432 510.035662531323Q1505.4858696429264 515.2637612093463 1503.4471130155891 522.6719164789778Q1501.4083563882518 530.1002574577908 1501.3477992607072 532.6436568146671Q1501.267056423981 535.1870561715432 1502.861727449324 535.1870561715432L1502.861727449324 535.1870561715432Q1505.0417840409323 535.1870561715432 1508.2513118007996 532.4216140136699Q1511.4406538514859 529.6561718557966 1514.629995902172 526.3860869683842Q1517.8395236620395 523.1160020809721 1520.5242229831867 520.3505599230987Q1523.2089223043338 517.5851177652254 1524.238393472593 517.5851177652254L1524.238393472593 517.5851177652254Q1526.2569643907486 517.5851177652254 1526.2569643907486 522.5306165147069L1526.2569643907486 522.5306165147069Q1526.2569643907486 532.5629139779408 1517.4761808967714 542.2924258034514Q1508.6752116936127 552.0421233381435 1497.3510288427588 551.9008233738726L1497.3510288427588 551.9008233738726Q1490.649373394482 551.9008233738726 1487.318731379525 546.5112390223969Q1483.9679036553866 541.1418403801026 1483.8266036911155 533.4308994727478L1483.8266036911155 533.4308994727478Q1483.8266036911155 518.1705033314906 1490.649373394482 504.5047782155763L1490.649373394482 504.5047782155763Q1487.460031343796 505.81684931237754 1483.4632609258476 505.81684931237754Q1479.4664905078992 505.81684931237754 1477.7305195182853 505.53424938383574L1477.7305195182853 505.53424938383574Q1476.418448421484 511.0449479904009 1475.1063773246829 516.6565751428737Q1473.7943062278816 522.248016586165 1473.7943062278816 527.0320296621942ZM1597.3308464190118 520.794645525093L1597.3308464190118 520.794645525093Q1597.3308464190118 533.4308994727478 1608.089829412782 533.4308994727478L1608.089829412782 533.4308994727478Q1619.8580978656296 533.4308994727478 1623.9356111203042 525.2960586725802L1623.9356111203042 525.2960586725802Q1625.3889821813764 522.389316550436 1625.3889821813764 517.8071605662226Q1625.3889821813764 513.225004582009 1623.2089255897681 509.3089770007869L1623.2089255897681 509.3089770007869Q1619.5754979370877 503.0514071545042 1610.7139716063841 495.5019519206018L1610.7139716063841 495.5019519206018Q1596.0187753222106 483.0069979372179 1596.0187753222106 469.56331562230076Q1596.0187753222106 456.11963330738365 1604.4564017601015 448.85277800202306Q1612.8940281979926 441.58592269666246 1623.7943111560332 441.58592269666246Q1634.6945941140743 441.58592269666246 1641.0732782154462 447.09662130322755Q1647.4721480259998 452.6275056189742 1647.4721480259998 463.66908854128604L1647.4721480259998 463.66908854128604Q1647.4721480259998 470.9359438466467 1642.6073921132445 476.3255281981224Q1637.7426362004894 481.69492684041666 1629.7490953645927 483.0069979372179L1629.7490953645927 483.0069979372179Q1633.382523017273 486.055040023633 1637.0159506699533 489.24438207431905L1637.0159506699533 489.24438207431905Q1640.5080783583626 492.4539098341866 1643.414820480507 496.22863745113784L1643.414820480507 496.22863745113784Q1649.793504581879 504.80756385329965 1649.793504581879 516.7171322704185L1649.793504581879 516.7171322704185Q1649.793504581879 525.0134587440384 1645.9582198373832 531.6949284831339Q1642.1027493837055 538.3763982222292 1635.9259223741492 542.9585542064428Q1629.7490953645927 547.5407101906562 1622.0381544572379 550.0033667108062Q1614.3473992590643 552.4660232309562 1607.6457438107873 552.4660232309562L1607.6457438107873 552.4660232309562Q1593.4148188377894 552.4660232309562 1585.5625779661639 545.9258534561318L1585.5625779661639 545.9258534561318Q1576.3982659977369 538.5176981865002 1576.3982659977369 524.5693731420442L1576.3982659977369 524.5693731420442Q1576.3982659977369 515.4050611736172 1582.3732359154778 506.84632048063696Q1588.3280201240373 498.2673940784751 1595.0094898631328 498.2673940784751L1595.0094898631328 498.2673940784751Q1600.237588541156 498.2673940784751 1600.237588541156 501.4567361291612L1600.237588541156 501.4567361291612Q1600.237588541156 506.1196349501009 1598.784217480084 510.68160522513284Q1597.3308464190118 515.2637612093463 1597.3308464190118 520.794645525093ZM1625.530282145647 479.51487024880845L1625.530282145647 479.51487024880845Q1633.8064229100855 471.23872948437 1633.8064229100855 462.2157174802139L1633.8064229100855 462.2157174802139Q1633.8064229100855 459.4502753223406 1630.8996807879414 457.57300436845577L1630.8996807879414 457.57300436845577Q1627.7103387372554 455.81684766966026 1624.218211048846 455.81684766966026L1624.218211048846 455.81684766966026Q1616.3659701772203 455.81684766966026 1612.8940281979926 460.9036463834127L1612.8940281979926 460.9036463834127Q1614.6299991876062 467.16121622969547 1618.0413840392894 471.5213294129118Q1621.4527688909727 475.8814425961282 1625.530282145647 479.51487024880845ZM1666.4467146566635 543.543939772708Q1664.7713007945945 539.6884693190304 1664.0446152640584 534.5209277685519Q1663.3179297335223 529.3735719272547 1663.3179297335223 520.067959994557Q1663.3179297335223 510.7623480618591 1666.8100574219316 494.9165663543366L1666.8100574219316 494.9165663543366L1660.2698876471072 494.9165663543366Q1658.5137309483116 494.9165663543366 1658.5137309483116 493.4631952932645L1658.5137309483116 493.4631952932645Q1658.5137309483116 489.97106760485514 1659.179859351303 487.7304538857023Q1659.825802045113 485.4696544573679 1662.3086442744443 482.5629123352236L1662.3086442744443 482.5629123352236L1665.7805862536723 482.5629123352236Q1667.8193428810096 482.5629123352236 1670.1406994368886 482.4216123709527L1670.1406994368886 482.4216123709527Q1677.1249548137075 460.0356608886058 1684.391810119068 460.0356608886058L1684.391810119068 460.0356608886058Q1690.2052943633566 460.1769608528767 1692.5266509192356 467.44381615823727L1692.5266509192356 467.44381615823727Q1693.1120364855005 469.4825727855745 1693.8387220160366 471.8039293414536L1693.8387220160366 471.8039293414536L1687.8839378074772 482.2803124066818Q1698.0575352349824 482.5629123352236 1700.7422345561295 482.5629123352236Q1703.4269338772765 482.5629123352236 1703.6489766782734 483.06755506476253Q1703.8710194792707 483.59238350348306 1703.8710194792707 484.6016689625609L1703.8710194792707 484.6016689625609Q1703.8710194792707 487.22581115616333 1702.6396912191958 491.1418387373854Q1701.3881772499392 495.0578663186075 1699.793506224596 494.9165663543366L1699.793506224596 494.9165663543366L1685.2597956138748 494.1898808238006Q1682.21175352746 511.93311919438935 1682.21175352746 523.5600876829662Q1682.21175352746 535.1870561715432 1685.5625812515982 535.1870561715432L1685.5625812515982 535.1870561715432Q1688.30783770029 535.1870561715432 1695.5746930056507 530.6049001873298Q1702.8415483110114 526.0227442031163 1706.051076070879 521.8039309841708Q1709.2404181215647 517.5851177652254 1711.2791747489023 517.5851177652254L1711.2791747489023 517.5851177652254Q1713.3179313762394 517.5851177652254 1713.3179313762394 522.5306165147069Q1713.3179313762394 527.4761152641884 1709.82580368783 532.6436568146671Q1706.3336759994208 537.7910126559641 1701.024834484671 542.0905687116358Q1695.736178679103 546.369939058126 1689.2565660318232 549.1353812159994Q1682.797139093725 551.9008233738726 1677.9929403085143 551.9008233738726Q1673.2089272324854 551.9008233738726 1670.6655278756093 549.6400239455382Q1668.122128518733 547.3792245172037 1666.4467146566635 543.543939772708ZM1795.2920963625434 517.1612178724126L1795.2920963625434 517.1612178724126Q1797.8960528469643 517.1612178724126 1797.8960528469643 523.8426876115082L1797.8960528469643 523.8426876115082Q1797.8960528469643 527.4761152641884 1794.8480107605492 532.6436568146671Q1791.7999686741337 537.7910126559641 1786.9352127613788 542.0905687116358Q1782.050271139442 546.369939058126 1776.0954869308825 549.1353812159994Q1770.140702722323 551.9008233738726 1764.4685184423056 551.9008233738726L1764.4685184423056 551.9008233738726Q1756.777763244132 551.9008233738726 1754.1536210505296 538.3763982222292L1754.1536210505296 538.3763982222292Q1750.3788934335785 544.6339680685121 1744.2626235515668 548.6307384864604Q1738.1665393787366 552.6275089044086 1727.9121991145053 552.6275089044086Q1717.6780445594559 552.6275089044086 1711.4204747131732 546.228639093855Q1705.1830905760721 539.8297692833014 1705.3243905403428 530.6654573148744L1705.3243905403428 530.6654573148744Q1705.3243905403428 505.95814927664844 1721.735372104949 491.7272243036506L1721.735372104949 491.7272243036506Q1728.7196274817675 485.7724400950912 1734.7551545270533 483.87498343202486Q1740.7906815723386 481.97752676895846 1747.4721513114341 481.97752676895846Q1754.1536210505296 481.97752676895846 1758.3724342694752 484.3190690340191L1758.3724342694752 484.3190690340191Q1760.4111908968125 480.10025581507364 1763.0151473812334 480.10025581507364L1763.0151473812334 480.10025581507364Q1768.1019460949856 480.10025581507364 1772.6841020791994 484.52092612583465Q1777.2662580634128 488.96178214577725 1777.2662580634128 492.8778097269994L1777.2662580634128 492.8778097269994Q1775.2275014360753 497.68200851220996 1771.3114738548534 504.3634782513054L1771.3114738548534 504.3634782513054Q1770.140702722323 511.0449479904009 1770.140702722323 523.1160020809721Q1770.140702722323 535.1870561715432 1773.1887448087382 535.1870561715432L1773.1887448087382 535.1870561715432Q1776.9634724256894 535.1870561715432 1791.4971830364107 520.067959994557L1791.4971830364107 520.067959994557Q1794.121325230013 517.1612178724126 1795.2920963625434 517.1612178724126ZM1726.6808708544304 525.8814442388455L1726.6808708544304 525.8814442388455Q1726.6808708544304 537.064327125428 1734.9771973280504 537.064327125428L1734.9771973280504 537.064327125428Q1743.8387236587541 536.9230271611573 1749.6522079030426 527.6174152284593L1749.6522079030426 527.6174152284593Q1751.6909645303797 524.4280731777733 1752.9828499179994 519.7651743568335L1752.9828499179994 519.7651743568335Q1752.9828499179994 503.49549275649844 1755.8895920401437 491.8685242679215L1755.8895920401437 491.8685242679215Q1744.1213235872958 494.1898808238006 1735.401097220863 503.21289282795664Q1726.6808708544304 512.2157191229312 1726.6808708544304 525.8814442388455ZM1797.1088101888836 543.543939772708Q1795.433396326814 539.6884693190304 1794.706710796278 534.5209277685519Q1793.9800252657424 529.3735719272547 1793.9800252657424 520.067959994557Q1793.9800252657424 510.7623480618591 1797.4721529541516 494.9165663543366L1797.4721529541516 494.9165663543366L1790.9319831793268 494.9165663543366Q1789.1758264805317 494.9165663543366 1789.1758264805317 493.4631952932645L1789.1758264805317 493.4631952932645Q1789.1758264805317 489.97106760485514 1789.8419548835232 487.7304538857023Q1790.4878975773327 485.4696544573679 1792.9505540974828 482.5629123352236L1792.9505540974828 482.5629123352236L1796.442681785892 482.5629123352236Q1798.4814384132292 482.5629123352236 1800.8027949691082 482.4216123709527L1800.8027949691082 482.4216123709527Q1807.7870503459271 460.0356608886058 1815.053905651288 460.0356608886058L1815.053905651288 460.0356608886058Q1820.8673898955763 460.1769608528767 1823.1887464514552 467.44381615823727L1823.1887464514552 467.44381615823727Q1823.7741320177206 469.4825727855745 1824.5008175482567 471.8039293414536L1824.5008175482567 471.8039293414536L1818.5460333396973 482.2803124066818Q1828.719630767202 482.5629123352236 1831.404330088349 482.5629123352236Q1834.089029409496 482.5629123352236 1834.3110722104934 483.06755506476253Q1834.5331150114907 483.59238350348306 1834.5331150114907 484.6016689625609L1834.5331150114907 484.6016689625609Q1834.5331150114907 487.22581115616333 1833.281601042234 491.1418387373854Q1832.050272782159 495.0578663186075 1830.4556017568161 494.9165663543366L1830.4556017568161 494.9165663543366L1815.9218911460948 494.1898808238006Q1812.8738490596797 511.93311919438935 1812.8738490596797 523.5600876829662Q1812.8738490596797 535.1870561715432 1816.2044910746367 535.1870561715432L1816.2044910746367 535.1870561715432Q1818.96993323251 535.1870561715432 1826.2367885378708 530.6049001873298Q1833.5036438432312 526.0227442031163 1836.7131716030985 521.8039309841708Q1839.9025136537848 517.5851177652254 1841.941270281122 517.5851177652254L1841.941270281122 517.5851177652254Q1843.9800269084594 517.5851177652254 1843.9800269084594 522.5306165147069Q1843.9800269084594 527.4761152641884 1840.4878992200497 532.6436568146671Q1836.9957715316405 537.7910126559641 1831.686930016891 542.0905687116358Q1826.3780885021415 546.369939058126 1819.9186615640433 549.1353812159994Q1813.4592346259446 551.9008233738726 1808.655035840734 551.9008233738726Q1803.8508370555237 551.9008233738726 1801.3074376986474 549.6400239455382Q1798.764038341771 547.3792245172037 1797.1088101888836 543.543939772708ZM1881.9089744606054 492.7365097627284L1881.9089744606054 490.13255327830757Q1881.9089744606054 480.38285574361544 1897.0280706375916 480.38285574361544L1897.0280706375916 480.38285574361544Q1900.8027982545427 480.38285574361544 1901.7515265860761 482.865697972947Q1902.6800692084275 485.3283544930969 1902.6800692084275 490.41515320684937L1902.6800692084275 490.41515320684937Q1902.6800692084275 497.54070854793906 1899.4907271577417 512.4983190514729Q1896.301385107056 527.4761152641884 1896.4426850713267 532.7042139422117L1896.4426850713267 532.7042139422117Q1896.4426850713267 535.1870561715432 1898.0373560966696 535.1870561715432L1898.0373560966696 535.1870561715432Q1900.2174126882778 535.1870561715432 1903.4067547389636 532.4216140136699Q1906.6162824988314 529.6561718557966 1909.8056245495172 526.3860869683842Q1913.015152309385 523.1160020809721 1915.699851630532 520.3505599230987Q1918.384550951679 517.5851177652254 1919.393836410757 517.5851177652254L1919.393836410757 517.5851177652254Q1921.4325930380942 517.5851177652254 1921.4325930380942 522.5306165147069L1921.4325930380942 522.5306165147069Q1921.4325930380942 532.7042139422117 1911.4002955748601 542.1511258391805L1911.4002955748601 542.1511258391805Q1894.5452284082603 552.0421233381435 1890.043815260773 552.0421233381435L1890.043815260773 552.0421233381435Q1889.5997296587784 552.0421233381435 1889.317129730237 551.9008233738726L1889.317129730237 551.9008233738726Q1883.7862454144902 551.9008233738726 1881.5456316953373 548.2673957211923Q1879.284832267003 544.6339680685121 1878.6994467007376 539.1030837527653L1878.6994467007376 539.1030837527653Q1875.7927045785932 544.4724823950596 1870.705905864841 548.327952848737Q1865.6191071510884 552.1834233024144 1859.078937376264 552.1834233024144L1859.078937376264 552.1834233024144Q1847.6134545611399 552.1834233024144 1841.4366275515831 547.8233101191981Q1835.2598005420268 543.4631969359817 1835.2598005420268 534.88427053382L1835.2598005420268 534.88427053382Q1835.2598005420268 531.1095429168687 1836.3498288378305 527.9202008661828Q1837.4398571336346 524.7106731063151 1839.9025136537848 520.067959994557L1839.9025136537848 520.067959994557L1844.1213268727302 484.3190690340191Q1848.6227400202174 480.82694134560967 1857.0603664581085 480.82694134560967L1857.0603664581085 480.82694134560967Q1863.741836197204 480.82694134560967 1864.6098216920109 489.5471677120424L1864.6098216920109 489.5471677120424Q1865.336507222547 496.6727230531321 1863.963878998201 502.26416449642346Q1862.5710650646733 507.8556059397148 1860.2497085087944 516.3537895051504Q1857.9283519529154 524.8519730705859 1857.9283519529154 531.3921428454105L1857.9283519529154 531.3921428454105Q1857.9283519529154 536.6404272326154 1864.4685217277397 536.6404272326154L1864.4685217277397 536.6404272326154Q1871.5940770688298 536.6404272326154 1876.8221757468527 524.1252875400498L1876.8221757468527 524.1252875400498Q1880.8795032923458 514.5370756788102 1882.332874353418 502.7688072259624L1882.332874353418 502.7688072259624Q1882.1915743891473 501.5980360934321 1882.1310172616022 499.7813222670919Q1882.050274424876 497.96460844075176 1881.96953158815 496.22863745113784Q1881.9089744606054 494.4926664615239 1881.9089744606054 492.7365097627284L1881.9089744606054 492.7365097627284ZM1947.3106722088505 481.0489841466068Q1957.0401840343611 480.96824130988057 1961.8443828195718 484.68241179928714Q1966.628395895601 488.3763965795121 1966.628395895601 495.27990911960467Q1966.628395895601 502.1834216596972 1962.4903255133818 507.0481775724525Q1958.3522551311626 511.93311919438935 1952.3974709226031 513.9516901125451L1952.3974709226031 513.9516901125451Q1956.6162841415485 518.3118032957614 1960.0276689932316 522.8334021524303Q1963.4390538449152 527.3348152999175 1963.4390538449152 532.2803140493991L1963.4390538449152 532.2803140493991Q1963.4390538449152 542.0098258749097 1955.7281129375601 547.3186673896591Q1948.037357739387 552.6275089044086 1934.2908897867464 552.6275089044086Q1920.5646075432874 552.6275089044086 1913.7418378399211 547.1773674253882Q1906.8988824273733 541.7272259463678 1906.8988824273733 534.8237134062751Q1906.8988824273733 527.9202008661828 1910.3102672790565 522.248016586165Q1913.7418378399211 516.5758323061475 1917.657865421143 516.5758323061475L1917.657865421143 516.5758323061475Q1919.979221977022 516.5758323061475 1921.0086931452815 518.2512461682168Q1922.0179786043595 519.926660030286 1924.7834207622327 527.9202008661828L1924.7834207622327 527.9202008661828Q1925.7927062213107 530.8269429883269 1928.1140627771897 533.4308994727478L1928.1140627771897 533.4308994727478Q1933.5036471286658 539.3856836813072 1945.1306156172427 539.3856836813072L1945.1306156172427 539.3856836813072Q1943.374458918447 533.874985074742 1939.5391741739513 529.8782146567937Q1935.683703720274 525.8814442388455 1931.9089761033229 522.1067166218942Q1928.1140627771897 518.3118032957614 1925.2073206550454 514.0324329492713Q1922.3005785329015 509.7530626027812 1922.3005785329015 503.9395783584927L1922.3005785329015 503.9395783584927Q1922.3005785329015 493.4631952932645 1930.1528194045272 486.92302551843994L1930.1528194045272 486.92302551843994Q1937.5609746741584 481.10954127415147 1947.3106722088505 481.0489841466068ZM1946.7252866425856 507.9969059039857L1946.7252866425856 507.9969059039857Q1952.5387708868739 501.7595217668845 1952.5387708868739 497.96460844075176L1952.5387708868739 497.96460844075176Q1952.5387708868739 496.22863745113784 1951.307442626799 494.85600922679197Q1950.0761143667241 493.4631952932645 1947.7345721016632 493.4631952932645Q1945.4132155457842 493.4631952932645 1943.3139017909025 494.04858085952964Q1941.1944023268388 494.6339664257948 1939.9025169392194 494.9165663543366L1939.9025169392194 494.9165663543366Q1939.9025169392194 500.4474506700833 1946.7252866425856 507.9969059039857ZM2085.522222974973 500.4474506700833L2085.522222974973 500.4474506700833Q2071.4325979662462 500.4474506700833 2071.7151978947877 493.3218953289936L2071.7151978947877 493.3218953289936Q2071.7151978947877 486.64042558989814 2085.239623046431 486.64042558989814L2085.239623046431 486.64042558989814Q2088.4289650971173 486.64042558989814 2091.3357072192616 487.36711112043423L2091.3357072192616 487.36711112043423Q2096.139906004472 482.5629123352236 2096.139906004472 472.83340050971304L2096.139906004472 472.83340050971304Q2096.139906004472 455.97833334311275 2073.612654557854 455.97833334311275L2073.612654557854 455.97833334311275Q2061.824200395825 455.97833334311275 2051.2267030755074 461.06513205686514L2051.2267030755074 461.06513205686514Q2047.2904897851035 462.94240301075 2044.1818905711439 464.537074036093Q2041.0531056480022 466.15193077061764 2038.4289634543998 466.15193077061764Q2035.8250069699793 466.15193077061764 2035.8250069699793 464.537074036093L2035.8250069699793 464.537074036093Q2035.8250069699793 462.6598030822082 2038.7317490921232 458.9456325928017Q2041.6384912142676 455.2516478125767 2046.866589892291 451.45673448644396L2046.866589892291 451.45673448644396Q2060.2295293704815 442.17130826292765 2077.2460822105345 442.00982258947516L2077.2460822105345 442.00982258947516Q2099.470548019429 442.00982258947516 2109.946931084657 450.89153462936036L2109.946931084657 450.89153462936036Q2118.9497573796316 458.29968989899186 2118.9497573796316 471.07724381091754L2118.9497573796316 471.07724381091754Q2118.9497573796316 485.9137400593621 2104.4160467689103 493.7659809309879L2104.4160467689103 493.7659809309879Q2118.3643718133667 501.7595217668845 2120.988514006969 513.3864902554615L2120.988514006969 513.3864902554615Q2121.856499501776 517.4438178009545 2121.856499501776 524.1252875400498Q2121.856499501776 530.8269429883269 2118.2230718490955 536.7817271968863Q2114.589644196415 542.7365114054458 2108.4935600235854 546.8140246601201L2108.4935600235854 546.8140246601201Q2096.281205968743 554.6460798225644 2077.2460822105345 554.6460798225644L2077.2460822105345 554.6460798225644Q2063.721657058891 554.6460798225644 2047.1491898208324 548.5499956497342L2047.1491898208324 548.5499956497342Q2036.1076068985208 544.4724823950596 2030.8795082204974 538.8204838242236L2030.8795082204974 538.8204838242236Q2028.2553660268954 536.0550416663502 2028.3361088636216 533.2895995084768Q2028.3966659911662 530.5241573506036 2031.1015510214947 530.5241573506036Q2033.7862503426418 530.5241573506036 2041.3357055765441 532.4216140136699L2041.3357055765441 532.4216140136699L2041.3357055765441 532.2803140493991Q2041.3357055765441 520.9359454893638 2043.9598477701466 509.0263770722451L2043.9598477701466 509.0263770722451Q2048.461260917634 488.23509661524116 2054.4160451261932 476.4668281623933L2054.4160451261932 476.4668281623933Q2060.814914936747 463.38648861274424 2067.6376846401135 463.38648861274424L2067.6376846401135 463.38648861274424Q2069.5351413031794 463.38648861274424 2069.5351413031794 469.9266583875688Q2069.5351413031794 476.4668281623933 2068.3038130431046 483.2895978657597Q2067.0724847830297 490.13255327830757 2065.679670849502 496.7332801806768Q2064.307042625156 503.35419279222754 2063.0757143650812 508.7235914345218Q2061.824200395825 514.1131757859976 2061.824200395825 516.4345323418765L2061.824200395825 516.4345323418765L2060.3708293347527 538.3763982222292Q2068.9497557369145 540.6977547781084 2074.9045399454735 540.6977547781084Q2080.879509863215 540.6977547781084 2085.6635229392436 538.6589981507711L2085.6635229392436 538.6589981507711Q2097.7345770298152 533.5721994370188 2097.7345770298152 520.9359454893638L2097.7345770298152 520.9359454893638Q2097.7345770298152 513.3864902554615 2096.281205968743 508.44099150598Q2094.827834907671 503.49549275649844 2091.0531072907197 499.72076513954727L2091.0531072907197 499.72076513954727Q2087.702279566581 500.4474506700833 2085.522222974973 500.4474506700833ZM2222.7244882820173 517.1612178724126L2222.7244882820173 517.1612178724126Q2225.328444766438 517.1612178724126 2225.328444766438 523.8426876115082L2225.328444766438 523.8426876115082Q2225.328444766438 527.4761152641884 2222.2804026800227 532.6436568146671Q2219.2323605936076 537.7910126559641 2214.3676046808528 542.0905687116358Q2209.5028487680975 546.369939058126 2203.5278788503565 549.1353812159994Q2197.573094641797 551.9008233738726 2191.9009103617796 551.9008233738726L2191.9009103617796 551.9008233738726Q2184.210155163606 551.9008233738726 2181.5860129700036 538.3763982222292L2181.5860129700036 538.3763982222292Q2177.8112853530524 544.6339680685121 2171.7152011802223 548.6307384864604Q2165.59893129821 552.6275089044086 2155.3647767431607 552.6275089044086Q2145.11043647893 552.6275089044086 2138.8528666326474 546.228639093855Q2132.615482495546 539.8297692833014 2132.756782459817 530.6654573148744L2132.756782459817 530.6654573148744Q2132.756782459817 505.95814927664844 2149.1879497336045 491.7272243036506L2149.1879497336045 491.7272243036506Q2156.1520194012414 485.7724400950912 2162.187546446527 483.87498343202486Q2168.2230734918126 481.97752676895846 2174.9045432309085 481.97752676895846Q2181.5860129700036 481.97752676895846 2185.804826188949 484.3190690340191L2185.804826188949 484.3190690340191Q2187.8435828162865 480.10025581507364 2190.447539300707 480.10025581507364L2190.447539300707 480.10025581507364Q2195.5343380144595 480.10025581507364 2200.1164939986734 484.52092612583465Q2204.6986499828868 488.96178214577725 2204.6986499828868 492.8778097269994L2204.6986499828868 492.8778097269994Q2202.6598933555497 497.68200851220996 2198.7438657743273 504.3634782513054L2198.7438657743273 504.3634782513054Q2197.573094641797 511.0449479904009 2197.573094641797 523.1160020809721Q2197.573094641797 535.1870561715432 2200.621136728212 535.1870561715432L2200.621136728212 535.1870561715432Q2204.416050054345 535.1870561715432 2218.949760665066 520.067959994557L2218.949760665066 520.067959994557Q2221.553717149487 517.1612178724126 2222.7244882820173 517.1612178724126ZM2154.1132627739044 525.8814442388455L2154.1132627739044 525.8814442388455Q2154.1132627739044 537.064327125428 2162.4095892475243 537.064327125428L2162.4095892475243 537.064327125428Q2171.2711155782276 536.9230271611573 2177.0845998225163 527.6174152284593L2177.0845998225163 527.6174152284593Q2179.1233564498534 524.4280731777733 2180.435427546655 519.7651743568335L2180.435427546655 519.7651743568335Q2180.435427546655 503.49549275649844 2183.342169668799 491.8685242679215L2183.342169668799 491.8685242679215Q2171.5537155067695 494.1898808238006 2162.833489140337 503.21289282795664Q2154.1132627739044 512.2157191229312 2154.1132627739044 525.8814442388455ZM2239.2969555200757 527.0320296621942L2239.2969555200757 527.0320296621942L2240.164941014883 544.775268032783Q2240.164941014883 548.2673957211923 2236.5315133622025 551.0126521698842Q2232.898085709522 553.7780943277575 2226.6405158632397 553.7780943277575L2226.6405158632397 553.7780943277575Q2223.007088210559 553.7780943277575 2221.634459986213 550.0033667108062Q2220.2416460526856 546.228639093855 2220.2416460526856 538.9617837884945L2220.2416460526856 538.9617837884945Q2220.2416460526856 523.7013876472372 2221.775759950484 515.0417184083492Q2223.3098738482827 506.4022348786427 2227.8112869957695 497.54070854793906L2227.8112869957695 497.54070854793906Q2221.1298172566744 491.1418387373854 2221.1298172566744 486.49912562562724L2221.1298172566744 486.49912562562724Q2221.1298172566744 476.74942809093517 2231.5860146127206 476.74942809093517L2231.5860146127206 476.74942809093517Q2236.955413255015 476.74942809093517 2241.03292650969 482.4216123709527L2241.03292650969 482.4216123709527Q2243.939668631834 486.3376399521748 2245.251739728635 491.5859243393797L2245.251739728635 491.5859243393797Q2247.2904963559727 492.3126098699158 2250.3385384423877 492.3126098699158L2250.3385384423877 492.3126098699158Q2254.557351661333 492.3126098699158 2260.0680502678983 489.5471677120424L2260.0680502678983 489.5471677120424L2263.8427778848495 487.64971104897603Q2265.5989345836447 486.7817255541691 2266.9110056804457 486.7817255541691L2266.9110056804457 486.7817255541691Q2271.10963319021 486.7817255541691 2275.3284464091553 499.1353795732821L2275.3284464091553 499.1353795732821Q2274.0163753123543 504.80756385329965 2272.5024471237375 510.035662531323Q2270.9683332259387 515.2637612093463 2268.9295765986017 522.6719164789778Q2266.9110056804457 530.1002574577908 2266.8302628437195 532.6436568146671Q2266.749520006994 535.1870561715432 2268.3643767415183 535.1870561715432L2268.3643767415183 535.1870561715432Q2270.5444333331266 535.1870561715432 2273.7337753838124 532.4216140136699Q2276.923117434498 529.6561718557966 2280.132645194366 526.3860869683842Q2283.3219872450522 523.1160020809721 2286.0066865661993 520.3505599230987Q2288.711571596528 517.5851177652254 2289.720857055606 517.5851177652254L2289.720857055606 517.5851177652254Q2291.759613682943 517.5851177652254 2291.759613682943 522.5306165147069L2291.759613682943 522.5306165147069Q2291.759613682943 532.5629139779408 2282.9586444797837 542.2924258034514Q2274.1778609858065 552.0421233381435 2262.8334924257715 551.9008233738726L2262.8334924257715 551.9008233738726Q2256.152022686676 551.9008233738726 2252.8011949625375 546.5112390223969Q2249.4705529475805 541.1418403801026 2249.309067274128 533.4308994727478L2249.309067274128 533.4308994727478Q2249.309067274128 518.1705033314906 2256.152022686676 504.5047782155763L2256.152022686676 504.5047782155763Q2252.942494926808 505.81684931237754 2248.94572450886 505.81684931237754Q2244.9489540909117 505.81684931237754 2243.2129831012976 505.53424938383574L2243.2129831012976 505.53424938383574Q2241.9009120044966 511.0449479904009 2240.588840907695 516.6565751428737Q2239.2969555200757 522.248016586165 2239.2969555200757 527.0320296621942Z " fill="#44aaaa" transform="matrix(0.38180270074421635,0,0,0.38180270074421635,0,102.88170212109422)"/></g></svg>